<?xml version="1.0" encoding="UTF-8"?>
<svg width="52px" height="52px" viewBox="0 0 52 52" version="1.1" xmlns="http://www.w3.org/2000/svg">
    <!-- Generator: Sketch 57.1 (83088) - https://sketch.com -->
    <title>Icon/Menu/Map</title>
    <desc>Created with Sketch.</desc>
    <defs>
        <filter x="-10.0%" y="-10.0%" width="120.0%" height="120.0%" filterUnits="objectBoundingBox" id="filter-1">
            <feOffset dx="2" dy="2" in="SourceAlpha" result="shadowOffsetOuter1"></feOffset>
            <feColorMatrix values="0 0 0 0 1   0 0 0 0 0.847058824   0 0 0 0 0.819607843  0 0 0 1 0" type="matrix" in="shadowOffsetOuter1" result="shadowMatrixOuter1"></feColorMatrix>
            <feMerge>
                <feMergeNode in="shadowMatrixOuter1"></feMergeNode>
                <feMergeNode in="SourceGraphic"></feMergeNode>
            </feMerge>
        </filter>
    </defs>
    <g id="Icon/Menu/Map" stroke="none" stroke-width="1" fill="none" fill-rule="evenodd">
        <g id="worldwide" filter="url(#filter-1)" transform="translate(6.000000, 6.000000)">
            <circle id="Oval" fill="#0094FF" cx="20" cy="20" r="20"></circle>
            <path d="M8.96335937,16.5578906 L10.3427344,19.3167187 L15.170625,19.3167187 L17.2397656,22.7652344 L19.9985937,22.7652344 L19.3089062,26.21375 L16.5500781,28.9725781 L16.5500781,31.0417187 L13.79125,33.1107813 L13.79125,36.5592969 L11.7221875,35.8696094 L10.3427344,32.4210937 L10.3427344,25.5240625 L6.89421875,24.834375 L5.51484375,22.0755469 L5.51484375,20.0064062 L6.89421875,18.6270312 L8.96335937,16.5578906 Z M27.5853906,8.97109375 L28.9647656,11.0402344 L33.1029687,11.7299219 L37.2411719,10.3505469 L37.4480469,10.2333594 C41.213125,16.9503906 40.7841406,25.2330469 36.3445312,31.5244531 L34.4823437,29.6622656 L34.4823437,26.9034375 L33.1029687,24.1446094 L31.7235937,21.3857812 L31.7235937,18.6269531 L29.6544531,17.2475781 L26.895625,17.9372656 L22.0677344,15.868125 L21.3780469,11.0402344 L23.4471875,8.97109375 L27.5853906,8.97109375 Z M12.5221875,1.4534375 L14.4809375,2.76390625 L18.6191406,3.45359375 L17.9294531,5.52273437 L15.8603125,6.21242187 L13.7911719,9.6609375 L10.3426562,11.7300781 L5.51476562,12.4197656 L5.51476562,14.4889062 L6.89414062,15.8682812 L6.89414062,18.6271094 L4.82515625,17.2476562 L2.75601562,15.8682812 L1.5559375,12.2611719 C3.6215625,7.33867187 7.57015625,3.44734375 12.5221875,1.4534375 Z M28.9094531,2.10179687 C30.9945313,3.13289062 32.8808594,4.5246875 34.4823437,6.21242187 L32.4132031,7.59179687 L28.9646875,6.90210937 L26.8955469,6.21242187 L24.1367188,6.90210937 L22.0675781,6.21242187 L23.4469531,3.45359375 L26.2057813,3.45359375 L28.9094531,2.10179687 Z" id="Combined-Shape" fill="#004B78" fill-rule="nonzero"></path>
        </g>
    </g>
</svg>